# xmcd CD database file generated by freedbAccess_ocx
#
# Track frame offsets:
#       150
#       15036
#       25688
#       40493
#       63518
#       81544
#       93768
#       110118
#       122190
#       136277
#       151145
#       168232
#
# Disc length: 2432 seconds
#
# Revision: 0
# Processed by: cddbd v1.5PL3 Copyright (c) Steve Scherf et al.
# Submitted via: CDnGo 2.00
#
DISCID=91097e0c
DTITLE=Marcial Ball, Angela Strehli,Lou Ann Barton - Dreams come true
DYEAR=1990
DGENRE=blues
TTITLE0=A fool In Love
TTITLE1=Good Rockin Daddy
TTITLE2=It hurts to be in love
TTITLE3=Love, sweet love
TTITLE4=Gonna Make It
TTITLE5=You can if you think you can
TTITLE6=I idolize you
TTITLE7=Dreams come true
TTITLE8=Bad thing
TTITLE9=Turn the lock on love
TTITLE10=Something´s got a hold on me
TTITLE11=Snake dance
EXTD=
EXTT0=
EXTT1=
EXTT2=
EXTT3=
EXTT4=
EXTT5=
EXTT6=
EXTT7=
EXTT8=
EXTT9=
EXTT10=
EXTT11=
PLAYORDER=
